<svg width="104" height="104" viewBox="0 0 104 104" fill="none" xmlns="http://www.w3.org/2000/svg">
<g filter="url(#filter0_d_534_8981)">
<circle cx="52" cy="44" r="36" fill="#00AA00"/>
<g clip-path="url(#clip0_534_8981)">
<path d="M34.3947 44.5459C34.3938 47.7722 35.2434 50.9225 36.8589 53.6992L34.2402 63.1864L44.025 60.6407C46.7314 62.1026 49.7636 62.8686 52.845 62.8688H52.8531C63.0254 62.8688 71.3058 54.6555 71.3102 44.5603C71.3121 39.6685 69.3939 35.0685 65.9088 31.6077C62.4243 28.1473 57.7901 26.2405 52.8524 26.2383C42.6789 26.2383 34.3991 34.4511 34.3949 44.5459" fill="url(#paint0_linear_534_8981)"/>
<path d="M33.4408 44.2435C33.4397 47.586 34.3198 50.8489 35.9929 53.7251L33.2803 63.5523L43.4159 60.9154C46.2086 62.4262 49.3529 63.2228 52.5524 63.224H52.5607C63.0979 63.224 71.6758 54.7153 71.6803 44.2587C71.6821 39.1911 69.6949 34.4258 66.0853 30.841C62.4752 27.2567 57.6752 25.2814 52.5607 25.2793C42.0217 25.2793 33.4451 33.7868 33.4409 44.2435H33.4408ZM39.4768 53.2297L39.0983 52.6336C37.5074 50.1237 36.6677 47.2231 36.6689 44.2447C36.6724 35.5534 43.801 28.4823 52.5667 28.4823C56.8117 28.4841 60.8011 30.126 63.8017 33.1052C66.8021 36.0846 68.4532 40.0451 68.4521 44.2575C68.4482 52.9489 61.3195 60.0209 52.5607 60.0209H52.5544C49.7024 60.0194 46.9054 59.2594 44.4661 57.8233L43.8856 57.4817L37.8709 59.0464L39.4768 53.2296V53.2297Z" fill="url(#paint1_linear_534_8981)"/>
<path d="M47.8164 36.668C47.4585 35.8787 47.0818 35.8628 46.7415 35.8489C46.4628 35.837 46.1442 35.8379 45.8259 35.8379C45.5073 35.8379 44.9896 35.9568 44.5521 36.4309C44.1141 36.9054 42.8799 38.052 42.8799 40.3841C42.8799 42.7164 44.5918 44.9703 44.8305 45.2868C45.0694 45.6028 48.1354 50.5418 52.9912 52.4419C57.0268 54.0209 57.8481 53.7069 58.7239 53.6277C59.5999 53.5488 61.5505 52.4813 61.9485 51.3744C62.3467 50.2677 62.3467 49.319 62.2273 49.1207C62.1079 48.9232 61.7893 48.8046 61.3116 48.5677C60.8337 48.3306 58.485 47.1838 58.0471 47.0256C57.6091 46.8675 57.2907 46.7886 56.9721 47.2632C56.6535 47.7371 55.7386 48.8046 55.4598 49.1207C55.1812 49.4376 54.9024 49.477 54.4248 49.24C53.9467 49.0021 52.4082 48.5022 50.5828 46.8874C49.1626 45.6309 48.2038 44.0793 47.9251 43.6047C47.6464 43.1308 47.8953 42.8739 48.1348 42.6377C48.3495 42.4253 48.6127 42.0842 48.8518 41.8075C49.09 41.5306 49.1695 41.3331 49.3288 41.017C49.4883 40.7006 49.4085 40.4237 49.2892 40.1866C49.1695 39.9495 48.2412 37.6053 47.8164 36.6681" fill="white"/>
</g>
</g>
<defs>
<filter id="filter0_d_534_8981" x="0.640001" y="0.320001" width="102.72" height="102.72" filterUnits="userSpaceOnUse" color-interpolation-filters="sRGB">
<feFlood flood-opacity="0" result="BackgroundImageFix"/>
<feColorMatrix in="SourceAlpha" type="matrix" values="0 0 0 0 0 0 0 0 0 0 0 0 0 0 0 0 0 0 127 0" result="hardAlpha"/>
<feOffset dy="7.68"/>
<feGaussianBlur stdDeviation="7.68"/>
<feComposite in2="hardAlpha" operator="out"/>
<feColorMatrix type="matrix" values="0 0 0 0 0 0 0 0 0 0 0 0 0 0 0 0 0 0 0.16 0"/>
<feBlend mode="normal" in2="BackgroundImageFix" result="effect1_dropShadow_534_8981"/>
<feBlend mode="normal" in="SourceGraphic" in2="effect1_dropShadow_534_8981" result="shape"/>
</filter>
<linearGradient id="paint0_linear_534_8981" x1="52.7752" y1="63.1864" x2="52.7752" y2="26.2383" gradientUnits="userSpaceOnUse">
<stop stop-color="#1FAF38"/>
<stop offset="1" stop-color="#60D669"/>
</linearGradient>
<linearGradient id="paint1_linear_534_8981" x1="52.4803" y1="63.5523" x2="52.4803" y2="25.2793" gradientUnits="userSpaceOnUse">
<stop stop-color="#F9F9F9"/>
<stop offset="1" stop-color="white"/>
</linearGradient>
<clipPath id="clip0_534_8981">
<rect width="38.4" height="38.4" fill="white" transform="translate(33.2803 25.2793)"/>
</clipPath>
</defs>
</svg>
